<?xml version="1.0" standalone="no"?>
<!DOCTYPE svg PUBLIC "-//W3C//DTD SVG 20010904//EN"
 "http://www.w3.org/TR/2001/REC-SVG-20010904/DTD/svg10.dtd">
<svg version="1.0" xmlns="http://www.w3.org/2000/svg"
 width="414.000000pt" height="414.000000pt" viewBox="0 0 414.000000 414.000000"
 preserveAspectRatio="xMidYMid meet">
<metadata>
Created by potrace 1.14, written by Peter Selinger 2001-2017
</metadata>
<g transform="translate(0.000000,414.000000) scale(0.100000,-0.100000)"
fill="#000000" stroke="none">
<path d="M193 3814 l-1 -323 67 2 66 2 0 -260 0 -260 -65 0 -65 0 -2 -127 -1
-127 54 2 c30 2 60 0 66 -4 8 -5 12 -47 12 -131 l1 -123 65 0 65 0 -2 -458 -2
-459 67 4 67 3 -1 -133 -1 -133 51 1 c87 3 81 7 78 -65 l-2 -64 67 2 68 2 -1
-68 -1 -68 124 2 c68 1 126 -1 130 -5 3 -3 6 -91 6 -196 l-1 -189 64 2 c71 3
68 7 65 -79 l-1 -41 59 -1 c33 0 64 -2 68 -5 5 -3 8 -33 6 -67 l-2 -62 67 4
67 3 -2 -66 -3 -66 133 1 132 1 -2 -67 -2 -68 67 3 67 2 -1 -66 -2 -66 195 0
195 0 -4 66 -3 66 66 -2 66 -2 -1 67 -1 67 130 0 130 0 1 57 c0 32 4 61 7 65
4 3 34 5 67 4 l60 -2 -3 68 -3 68 69 -1 68 -2 -4 54 c-3 33 0 57 6 61 6 4 34
7 62 7 l50 1 0 195 0 195 132 -2 133 -2 -3 67 -2 67 67 -1 67 -2 -2 67 -2 66
66 -3 66 -3 -1 133 -1 133 66 -2 66 -2 -1 457 -1 457 65 0 65 0 0 128 c0 106
2 127 15 128 8 0 38 1 65 2 l50 2 3 126 2 126 -67 -1 -68 -1 0 260 0 260 67
-2 67 -2 -1 323 0 323 -130 0 -130 0 4 -66 3 -66 -66 2 -67 2 2 -67 1 -67 -66
1 -67 2 2 -60 c0 -33 -3 -62 -8 -65 -5 -3 -34 -6 -66 -5 l-58 0 2 -66 1 -67
-67 1 -67 1 2 -66 2 -66 -67 1 -67 2 2 -60 c3 -69 0 -71 -75 -72 l-48 0 2 -53
c2 -34 -2 -57 -9 -61 -7 -4 -38 -7 -68 -5 l-57 2 4 -67 3 -67 -720 0 -720 0 2
67 1 67 -66 -2 -67 -2 1 62 2 61 -67 -1 -66 -2 0 65 0 65 -65 0 -65 0 2 67 2
66 -56 -2 c-31 -1 -61 4 -67 10 -7 6 -11 36 -9 68 l2 58 -67 -4 -67 -3 0 65 0
65 -65 0 -65 0 1 68 2 69 -67 -4 -66 -3 2 66 2 66 -128 0 -128 0 0 -323z"/>
</g>
</svg>
